<svg width="98" height="33" viewBox="0 0 98 33" fill="none" xmlns="http://www.w3.org/2000/svg">
<path d="M61.0515 26.5706C55.4042 30.733 47.2189 32.9539 40.1715 32.9539C30.2899 32.9539 21.3939 29.299 14.6637 23.2203C14.135 22.7423 14.6087 22.0908 15.2433 22.4631C22.5064 26.689 31.487 29.2313 40.7637 29.2313C47.0201 29.2313 53.9025 27.9369 60.2308 25.2508C61.1868 24.8447 61.9863 25.8768 61.0515 26.5706Z" fill="white"/>
<path d="M63.3992 23.8845C62.68 22.9623 58.6276 23.4488 56.8086 23.6645C56.2544 23.7322 56.1698 23.25 56.669 22.9031C59.8966 20.6315 65.1927 21.2872 65.8103 22.0486C66.4279 22.8142 65.6496 28.1231 62.6166 30.6569C62.1513 31.0461 61.7071 30.8388 61.9144 30.3227C62.5954 28.6222 64.1225 24.8109 63.3992 23.8845Z" fill="white"/>
<path d="M56.9357 6.86649V4.65835C56.9357 4.32417 57.1895 4.09998 57.494 4.09998H67.3799C67.6971 4.09998 67.951 4.3284 67.951 4.65835V6.54923C67.9467 6.86649 67.6802 7.28104 67.2064 7.93671L62.0837 15.2506C63.9873 15.2041 65.9966 15.4875 67.7225 16.4605C68.1117 16.6804 68.2175 17.0019 68.2471 17.3192V19.6754C68.2471 19.9969 67.8917 20.3733 67.5195 20.1788C64.478 18.584 60.4382 18.4106 57.0752 20.1957C56.7326 20.3818 56.373 20.0095 56.373 19.6881V17.4503C56.373 17.0907 56.3773 16.4774 56.7368 15.9317L62.6717 7.42064H57.5067C57.1895 7.42064 56.9357 7.19644 56.9357 6.86649Z" fill="white"/>
<path d="M20.8735 20.6441H17.8658C17.5782 20.6229 17.3498 20.4072 17.3286 20.1322V4.69643C17.3286 4.38763 17.5867 4.14228 17.9081 4.14228H20.7127C21.0046 4.15496 21.2373 4.37917 21.2584 4.65836V6.67614H21.3134C22.0452 4.72604 23.42 3.81656 25.2728 3.81656C27.1552 3.81656 28.3312 4.72604 29.1772 6.67614C29.9048 4.72604 31.5588 3.81656 33.3312 3.81656C34.5918 3.81656 35.9709 4.33687 36.8127 5.50439C37.7644 6.80304 37.5698 8.68968 37.5698 10.3437L37.5656 20.0857C37.5656 20.3945 37.3076 20.6441 36.9861 20.6441H33.9827C33.6823 20.6229 33.4412 20.3818 33.4412 20.0857V11.9046C33.4412 11.2532 33.5004 9.62878 33.3566 9.01117C33.1324 7.97479 32.4598 7.68291 31.5884 7.68291C30.8608 7.68291 30.0994 8.16938 29.7906 8.94772C29.4818 9.72607 29.5114 11.029 29.5114 11.9046V20.0857C29.5114 20.3945 29.2534 20.6441 28.9319 20.6441H25.9285C25.6239 20.6229 25.387 20.3818 25.387 20.0857L25.3828 11.9046C25.3828 10.1829 25.6662 7.64907 23.53 7.64907C21.3684 7.64907 21.453 10.1195 21.453 11.9046V20.0857C21.453 20.3945 21.195 20.6441 20.8735 20.6441Z" fill="white"/>
<path d="M76.4618 3.81656C80.9246 3.81656 83.34 7.64907 83.34 12.5222C83.34 17.2303 80.6708 20.9656 76.4618 20.9656C72.0794 20.9656 69.6936 17.133 69.6936 12.3572C69.6936 7.55178 72.109 3.81656 76.4618 3.81656ZM76.4872 6.96802C74.2706 6.96802 74.131 9.98834 74.131 11.8708C74.131 13.7574 74.1014 17.7845 76.4618 17.7845C78.7926 17.7845 78.9026 14.5357 78.9026 12.556C78.9026 11.2532 78.8476 9.69646 78.4542 8.46126C78.1158 7.3868 77.4432 6.96802 76.4872 6.96802Z" fill="white"/>
<path d="M89.1271 20.6441H86.1321C85.8318 20.6229 85.5907 20.3818 85.5907 20.0857L85.5864 4.64567C85.6118 4.36225 85.8614 4.14228 86.166 4.14228H88.9536C89.2159 4.15496 89.4316 4.33264 89.4908 4.57376V6.93417H89.5458C90.3876 4.82333 91.5678 3.81656 93.6448 3.81656C94.9943 3.81656 96.3098 4.30303 97.1559 5.63552C97.9427 6.87072 97.9427 8.94772 97.9427 10.441V20.1576C97.9088 20.4283 97.6592 20.6441 97.3631 20.6441H94.347C94.0721 20.6229 93.8437 20.4199 93.8141 20.1576V11.7735C93.8141 10.0856 94.0086 7.61523 91.9316 7.61523C91.1998 7.61523 90.5272 8.10593 90.193 8.85043C89.77 9.79375 89.715 10.7328 89.715 11.7735V20.0857C89.7108 20.3945 89.4485 20.6441 89.1271 20.6441Z" fill="white"/>
<path d="M49.055 13.271V12.6195C46.8807 12.6195 44.5838 13.0848 44.5838 15.6483C44.5838 16.947 45.2564 17.8268 46.4112 17.8268C47.2572 17.8268 48.0144 17.3065 48.4924 16.4605C49.0846 15.4199 49.055 14.4427 49.055 13.271ZM52.088 20.6018C51.8892 20.7795 51.6016 20.7922 51.3774 20.6737C50.3791 19.8446 50.2014 19.4597 49.6515 18.6686C48.0017 20.3522 46.8342 20.8556 44.6937 20.8556C42.1641 20.8556 40.1929 19.2947 40.1929 16.1686C40.1929 13.7278 41.5169 12.0654 43.3993 11.2532C45.0322 10.5341 47.3122 10.4072 49.055 10.2084V9.81918C49.055 9.10428 49.11 8.25825 48.6912 7.64066C48.3232 7.0865 47.621 6.85808 47.0034 6.85808C45.857 6.85808 44.8333 7.44607 44.5838 8.66435C44.533 8.93508 44.3342 9.20158 44.0635 9.21427L41.1447 8.90124C40.8993 8.84625 40.6286 8.64743 40.6963 8.27095C41.3689 4.73455 44.5626 3.66855 47.4222 3.66855C48.8858 3.66855 50.7978 4.05772 51.9527 5.16602C53.4163 6.53236 53.2767 8.35555 53.2767 10.3395V15.0265C53.2767 16.4351 53.8605 17.0527 54.4104 17.8142C54.605 18.0849 54.6473 18.4106 54.4019 18.6136C53.7886 19.1255 52.6972 20.0773 52.0965 20.6103L52.088 20.6018Z" fill="white"/>
<path d="M9.62558 13.271V12.6195C7.45128 12.6195 5.15432 13.0848 5.15432 15.6483C5.15432 16.947 5.82691 17.8268 6.98174 17.8268C7.82777 17.8268 8.58496 17.3065 9.06297 16.4605C9.65519 15.4199 9.62558 14.4427 9.62558 13.271ZM12.6586 20.6018C12.4598 20.7795 12.1721 20.7922 11.9479 20.6737C10.9496 19.8446 10.7719 19.4597 10.222 18.6686C8.57227 20.3522 7.40475 20.8556 5.2643 20.8556C2.73467 20.8556 0.763428 19.2947 0.763428 16.1686C0.763428 13.7278 2.08746 12.0654 3.96988 11.2532C5.60271 10.5341 7.88276 10.4072 9.62558 10.2084V9.81918C9.62558 9.10428 9.68057 8.25825 9.26179 7.64066C8.89376 7.0865 8.19156 6.85808 7.57396 6.85808C6.42759 6.85808 5.40389 7.44607 5.15432 8.66435C5.10355 8.93508 4.90474 9.20158 4.63401 9.21427L1.71521 8.90124C1.46986 8.84625 1.19913 8.64743 1.26681 8.27095C1.93941 4.73455 5.13316 3.66855 7.99274 3.66855C9.45637 3.66855 11.3684 4.05772 12.5232 5.16602C13.9869 6.53236 13.8473 8.35555 13.8473 10.3395V15.0265C13.8473 16.4351 14.431 17.0527 14.9809 17.8142C15.1755 18.0849 15.2178 18.4106 14.9725 18.6136C14.3591 19.1255 13.2677 20.0773 12.667 20.6103L12.6586 20.6018Z" fill="white"/>
</svg>
