<svg width="165" height="36" viewBox="0 0 165 36" fill="none" xmlns="http://www.w3.org/2000/svg">
<path fill-rule="evenodd" clip-rule="evenodd" d="M154.628 12.3523L154.319 12.7477L154.076 12.3064C153.289 10.8571 151.937 10.1216 150.051 10.1216C148.078 10.1216 146.754 11.2349 146.139 11.8962L145.735 12.3361L145.582 11.7558C145.356 10.9218 144.62 10.463 143.507 10.463H141.878L141.859 25.4602H145.762V18.8408C145.762 18.2592 145.833 17.6856 145.977 17.0864C146.366 15.4873 147.43 13.7666 149.22 13.9394C150.324 14.0743 150.824 14.884 150.824 16.5709V25.4615H154.503V18.8422C154.503 18.1161 154.57 17.575 154.732 17.0311C155.061 15.5048 156.416 13.9394 158.142 13.9394C159.393 13.9394 160.013 14.6141 160.013 16.5709V23.2686C160.013 24.753 160.948 25.4278 162.418 25.4615H163.998L164.004 15.8881C164.05 12.0757 162.309 10.1216 159.103 10.1216C157.341 10.1216 155.719 10.9556 154.628 12.3523Z" fill="white"/>
<path fill-rule="evenodd" clip-rule="evenodd" d="M124.424 17.9634C124.424 22.4168 127.898 25.7906 132.441 25.7906C136.961 25.7906 140.249 22.5113 140.249 17.9931C140.275 13.4898 136.959 10.116 132.416 10.116C127.906 10.116 124.424 13.4479 124.424 17.9634ZM132.467 22.1159C130.338 22.1159 128.855 20.406 128.855 17.9634C128.855 15.5248 130.338 13.8163 132.467 13.8163C134.607 13.8163 136.074 15.5707 136.074 17.9634C136.108 20.5072 134.687 22.1267 132.416 22.1267L132.467 22.1159Z" fill="white"/>
<path fill-rule="evenodd" clip-rule="evenodd" d="M121.633 20.2551C121.621 20.2672 119.874 22.1268 117.576 22.1268C115.481 22.1268 113.366 20.83 113.366 17.9325C113.366 15.4292 115.007 13.6802 117.354 13.6802C118.119 13.6802 118.958 13.9501 119.091 14.4198L119.111 14.4994C119.423 15.579 120.314 15.579 120.581 15.606H122.806V13.6424C122.806 11.0554 119.546 10.1161 117.352 10.1161C112.659 10.1161 109.257 13.4144 109.257 17.9568C109.257 22.5452 112.598 25.784 117.274 25.784C121.301 25.784 123.491 23.1106 123.513 23.081L123.629 22.9379L121.869 19.9892L121.633 20.2551Z" fill="white"/>
<path d="M105.493 25.6178C106.911 25.6178 108.061 24.4685 108.061 23.0508C108.061 21.6331 106.911 20.4838 105.493 20.4838C104.074 20.4838 102.925 21.6331 102.925 23.0508C102.925 24.4685 104.074 25.6178 105.493 25.6178Z" fill="white"/>
<path fill-rule="evenodd" clip-rule="evenodd" d="M97.2577 11.2916L97.1387 11.521L96.9423 11.3496C96.2555 10.7491 95.0262 10.0392 93.03 10.0392C89.0575 10.0392 86.3838 13.0527 86.3838 17.5372C86.3838 21.9906 89.1898 25.0945 93.0647 25.0945C94.4143 25.0945 95.4859 24.776 96.3317 24.1255L96.6617 23.8785V24.2982C96.6617 26.309 95.375 27.4183 93.0393 27.4183C91.9036 27.4183 90.872 27.1376 90.1826 26.8853C89.2793 26.6086 88.7515 26.8367 88.3881 27.749L88.05 28.5951L87.5743 29.8245L87.8683 29.9837C89.3621 30.7935 91.3424 31.1983 93.0794 31.1983C96.6965 31.1983 100.602 29.3265 100.602 24.0621L100.617 10.2579H98.9947C98.1876 10.2579 97.5677 10.6992 97.2577 11.2916ZM90.7144 17.4238C90.7144 16.5777 90.9268 13.8246 93.6406 13.8246C94.9902 13.8246 96.8475 14.2295 96.8475 17.5655C96.7873 20.7126 95.1358 21.3873 93.7996 21.3873L93.8651 21.39C91.5415 21.39 90.7144 19.3415 90.7144 17.4238Z" fill="white"/>
<path fill-rule="evenodd" clip-rule="evenodd" d="M80.0436 10.0716C77.8682 10.0716 76.4786 11.0487 75.701 11.8719L75.4431 12.1391L75.3509 11.7787C75.1224 10.8935 74.3527 10.4076 73.1916 10.4076H71.325L71.3356 25.4628H75.2881V18.5236C75.2881 17.8435 75.3749 17.2551 75.5526 16.718C76.0243 15.0932 77.0959 14.0824 78.7434 14.0824C80.0689 14.0824 80.8813 14.7571 80.8813 16.6154V23.1741C80.8813 24.7935 81.8167 25.4682 83.4201 25.4628H84.8779V15.9784C84.799 12.2106 83.511 10.0514 80.0369 10.0514" fill="white"/>
<path fill-rule="evenodd" clip-rule="evenodd" d="M68.8961 25.4575V12.7018C68.8961 11.1647 68.1692 10.4185 66.6607 10.4185L64.9851 10.4117L64.9971 22.054H64.9851L64.9971 25.583H68.8961" fill="white"/>
<path d="M66.8702 8.98352C68.2885 8.98352 69.4382 7.83423 69.4382 6.4165C69.4382 4.99878 68.2885 3.84949 66.8702 3.84949C65.452 3.84949 64.3022 4.99878 64.3022 6.4165C64.3022 7.83423 65.452 8.98352 66.8702 8.98352Z" fill="white"/>
<path fill-rule="evenodd" clip-rule="evenodd" d="M59.7423 18.2916C59.5672 17.9582 59.3681 17.6762 59.1543 17.4522L59.0181 17.3078L59.161 17.1674C59.3681 16.9475 59.5793 16.6883 59.7824 16.3847L63.7588 10.4158H58.9312L55.9448 15.0851C55.7765 15.3361 55.4344 15.4616 54.924 15.4616H53.8925V6.63445C53.8925 4.86793 52.6926 3.97455 51.5154 3.97455H49.9307L49.9333 25.4696H53.8925V19.2173H54.6447C55.1324 19.2173 55.4464 19.2173 55.5801 19.5412L57.9398 23.9946C58.5985 25.2092 59.2759 25.4791 60.4785 25.4238H63.7548L61.3136 21.3442L59.7423 18.2916Z" fill="white"/>
<path fill-rule="evenodd" clip-rule="evenodd" d="M32.8179 17.9001C32.8179 22.3536 36.0247 25.7273 40.5677 25.7273C45.0867 25.7273 48.3764 22.4494 48.3764 17.9312C48.4085 13.4252 45.1629 10.0514 40.6199 10.0514C36.1102 10.0514 32.8179 13.386 32.8179 17.9001ZM40.5985 22.0513C38.4699 22.0513 36.9868 20.3441 36.9868 17.9001C36.9868 15.4602 38.4699 13.7531 40.5985 13.7531C42.739 13.7531 44.2062 15.5075 44.2062 17.9001C44.2396 20.4426 42.7577 22.0621 40.6199 22.0621L40.5985 22.0513Z" fill="white"/>
<path fill-rule="evenodd" clip-rule="evenodd" d="M15.7986 17.9001C15.7986 22.3536 19.0054 25.7273 23.5485 25.7273C28.0701 25.7273 31.3558 22.4494 31.3558 17.9312C31.3812 13.4252 28.0594 10.0514 23.5164 10.0514C19.0094 10.0514 15.7986 13.386 15.7986 17.9001ZM23.5752 22.0513C21.4453 22.0513 19.9661 20.3441 19.9661 17.9001C19.9661 15.4602 21.4453 13.7531 23.5752 13.7531C25.7184 13.7531 27.1829 15.5075 27.1829 17.9001C27.2136 20.4426 25.7879 22.0621 23.5164 22.0621L23.5752 22.0513Z" fill="white"/>
<path fill-rule="evenodd" clip-rule="evenodd" d="M11.2052 14.4252L11.7517 13.9542C12.3864 13.4036 13.4514 12.1647 13.4514 10.0231C13.4514 6.74644 10.9353 4.77209 7.04169 4.77209H2.88215H2.59621H2.37707C1.22261 4.78829 0 6.00285 0 7.17288V8.19717V23.3225V25.5843H2.03902H7.12855C11.4564 25.5843 14.2517 23.0108 14.2517 19.3266C14.2531 17.3388 13.3618 15.5844 11.892 14.7747L11.2052 14.4252ZM3.95511 10.6115V9.5116C3.95511 8.55074 4.35863 8.09191 5.24319 8.03523H7.0123C8.5302 8.03523 9.41743 8.97989 9.41743 10.4873C9.41743 11.6573 8.79477 12.7747 7.0457 12.7747H3.95511V10.6115ZM3.95511 21.5817V18.7976V17.6978C3.95511 16.8044 4.29851 16.3415 5.05612 16.2362H7.41449C9.09808 16.2362 10.2205 17.3159 10.2205 19.0702C10.1844 20.8475 9.15153 21.5817 7.41449 21.5817H3.95511Z" fill="white"/>
</svg>
